# xmcd
#
# Track frame offsets:
#	150
#	24495
#	43380
#	65726
#	90010
#	95709
#	112679
#	133147
#	154567
#	173990
#	199461
#	225744
#	249807
#	270072
#	293319
#	315658
#
# Disc length: 4466 seconds
#
# Revision: 1
# Processed by: cddbd v1.5.2PL0 Copyright (c) Steve Scherf et al.
# Submitted via: audiograbber 1.83.01
#
DISCID=cb117010
DTITLE=Eminem - The Eminem Show
DYEAR=2002
DGENRE=Rap
TTITLE0=White America
TTITLE1=Business
TTITLE2=Cleaning Ou My Closet
TTITLE3=Square Dance
TTITLE4=The Kiss
TTITLE5=Soldier
TTITLE6=Say Goodbye Hollywood
TTITLE7=Deips
TTITLE8=Without Me
TTITLE9=Sing For The Moment
TTITLE10=Superman
TTITLE11=Hailie´s Song
TTITLE12=When The Music Stops
TTITLE13=Say What You Say
TTITLE14=Till I Collapse
TTITLE15=My Dad´s Gone Crazy
EXTD=
EXTT0=
EXTT1=
EXTT2=
EXTT3=
EXTT4=
EXTT5=
EXTT6=
EXTT7=
EXTT8=
EXTT9=
EXTT10=
EXTT11=
EXTT12=
EXTT13=
EXTT14=
EXTT15=
PLAYORDER=
